<?xml version="1.0" encoding="utf-8"?>
<!-- Generator: Adobe Illustrator 24.1.0, SVG Export Plug-In . SVG Version: 6.00 Build 0)  -->
<svg version="1.1" id="Слой_1" xmlns:sketch="http://www.bohemiancoding.com/sketch/ns"
	 xmlns="http://www.w3.org/2000/svg" xmlns:xlink="http://www.w3.org/1999/xlink" x="0px" y="0px" viewBox="0 0 13 23"
	 style="enable-background:new 0 0 13 23;" xml:space="preserve">
<style type="text/css">
	.st0{fill-rule:evenodd;clip-rule:evenodd;}
	.st1{fill-rule:evenodd;clip-rule:evenodd;fill:#FFFFFF;}
</style>
<path class="st0" d="M10,22H3c-1.1,0-2-0.9-2-2V3c0-1.1,0.9-2,2-2h7c1.1,0,2,0.9,2,2v17C12,21.1,11.1,22,10,22z"/>
<desc></desc>
<g id="Page-1">
	<g id="icon-2-file-pages">
		<path id="file-pages" class="st1" d="M7,10h2v2c0,0.6-0.4,1-1,1H5c-0.6,0-1-0.4-1-1V9H3v3c0,1.1,0.9,2,2,2h3c1.1,0,2-0.9,2-2V9
			H9.2l0,0H7H6v3h1V10L7,10z M5,20h5v-1H7v-2c0-1.1-0.9-2-2-2s-2,0.9-2,2v3H5L5,20z M0,20c0,1.7,1.3,3,3,3h7c1.7,0,3-1.3,3-3V3
			c0-1.7-1.3-3-3-3H3C1.3,0,0,1.3,0,3V20L0,20z M1,20c0,1.1,0.9,2,2,2h7c1.1,0,2-0.9,2-2V3c0-1.1-0.9-2-2-2H3C1.9,1,1,1.9,1,3V20
			L1,20z M4,19h2v-2c0-0.6-0.4-1-1-1s-1,0.4-1,1V19L4,19z M3,6c0,1.1,0.9,2,2,2s2-0.9,2-2V5c0-0.6,0.4-1,1-1s1,0.4,1,1v1
			c0,0.6-0.5,1-1,1l0,0v1l0,0c1.1,0,2-0.9,2-2V5c0-1.1-0.9-2-2-2S6,3.9,6,5v1c0,0.6-0.4,1-1,1S4,6.6,4,6V5c0-0.6,0.5-1,1-1V3
			C3.9,3,3,3.9,3,5V6L3,6z"/>
	</g>
</g>
</svg>
